<?xml version="1.0" encoding="utf-8"?>
<!-- Generator: Adobe Illustrator 22.1.0, SVG Export Plug-In . SVG Version: 6.00 Build 0)  -->
<svg version="1.1" id="Слой_1" xmlns="http://www.w3.org/2000/svg" xmlns:xlink="http://www.w3.org/1999/xlink" x="0px" y="0px"
	 viewBox="0 0 290 43.7" style="enable-background:new 0 0 290 43.7;" xml:space="preserve">
<style type="text/css">
	.st0{fill:#FFFFFF;}
</style>
<g>
	<g>
		<path class="st0" d="M75.3,34.1H72v-4.3h-8.4v4.3h-3.4v-6.9h0.9c0.7,0,1.3-0.6,1.6-1.8c0.3-1.2,0.5-3.2,0.6-6l0.3-7h10v14.7h1.8
			V34.1z M66.6,19.4c-0.1,1.7-0.2,3.2-0.5,4.5c-0.3,1.3-0.6,2.4-1.1,3.2h5.2V15.1h-3.4L66.6,19.4z"/>
		<path class="st0" d="M84.8,20.4l0.1,0.4H85l2.9-8.4h3.5l-5.4,14c-0.5,1.1-1,2-1.6,2.6c-0.6,0.6-1.5,0.9-2.6,0.9
			c-0.4,0-0.8,0-1.1-0.1c-0.3-0.1-0.7-0.2-1.1-0.4l0.4-2.4c0.3,0.1,0.6,0.2,0.8,0.2c0.2,0.1,0.4,0.1,0.7,0.1c0.5,0,1-0.1,1.2-0.4
			c0.3-0.3,0.5-0.7,0.6-1.3l0.2-0.6l-5.3-12.6h3.6L84.8,20.4z"/>
		<path class="st0" d="M101.3,18.6L101.3,18.6l2.5-6.1h3.9l-4.3,8.6l4.6,8.8H104l-2.6-6.3h-0.1l-2.5,6.3h-3.9l4.4-8.8L95,12.5h3.9
			L101.3,18.6z"/>
		<path class="st0" d="M124.5,23.6c0,2-0.6,3.6-1.7,4.8c-1.2,1.1-2.7,1.7-4.6,1.7c-1.9,0-3.4-0.6-4.6-1.7c-1.1-1.1-1.7-2.7-1.7-4.8
			v-4.8c0-2,0.6-3.6,1.7-4.8c1.1-1.2,2.7-1.7,4.6-1.7c1.9,0,3.5,0.6,4.6,1.7s1.7,2.8,1.7,4.8V23.6z M121.2,18.7
			c0-1.3-0.3-2.2-0.8-2.9c-0.5-0.6-1.3-1-2.2-1c-1,0-1.7,0.3-2.2,1s-0.7,1.6-0.7,2.9v4.9c0,1.3,0.2,2.3,0.7,2.9c0.5,0.6,1.2,1,2.2,1
			c1,0,1.7-0.3,2.2-1c0.5-0.6,0.8-1.6,0.8-2.9V18.7z"/>
		<path class="st0" d="M129.8,29.8V12.5h5c1.8,0,3.2,0.4,4.2,1.2c1,0.8,1.5,2,1.5,3.6c0,0.8-0.2,1.5-0.6,2.2
			c-0.4,0.6-0.9,1.1-1.6,1.4c1,0.2,1.7,0.7,2.2,1.4c0.5,0.7,0.7,1.6,0.7,2.6c0,1.7-0.5,2.9-1.4,3.8s-2.3,1.3-4.1,1.3H129.8z
			 M133.2,19.8h1.8c0.7,0,1.3-0.2,1.7-0.6s0.6-1,0.6-1.7c0-0.8-0.2-1.4-0.6-1.8c-0.4-0.4-1-0.6-1.8-0.6h-1.6V19.8z M133.2,22.1v5.1
			h2.5c0.7,0,1.3-0.2,1.7-0.6s0.6-1,0.6-1.8c0-0.8-0.2-1.5-0.5-1.9s-0.9-0.7-1.6-0.7h-0.1H133.2z"/>
		<path class="st0" d="M158.7,29.8h-3.4v-7.2h-5.6v7.2h-3.4V12.5h3.4V20h5.6v-7.5h3.4V29.8z"/>
		<path class="st0" d="M167.6,18.6h2.3c1.7,0,3.1,0.5,4.2,1.6c1.1,1.1,1.6,2.4,1.6,4c0,1.7-0.5,3-1.6,4.1s-2.5,1.6-4.2,1.6h-5.7
			V12.5h3.4V18.6z M167.6,21.2v6h2.3c0.8,0,1.3-0.3,1.8-0.9c0.4-0.6,0.6-1.3,0.6-2.2c0-0.8-0.2-1.5-0.6-2.1c-0.4-0.6-1-0.9-1.8-0.9
			H167.6z M182.1,29.8h-3.4V12.5h3.4V29.8z"/>
		<path class="st0" d="M194.6,12.5h3.4v17.4h-3.4V18.9l-0.1,0l-5.5,11h-3.4V12.5h3.4v11l0.1,0L194.6,12.5z M195.5,7.2L195.5,7.2
			c0.1,1.1-0.3,1.9-1,2.5s-1.6,1-2.8,1c-1.2,0-2.1-0.3-2.8-1c-0.7-0.6-1-1.5-1-2.5l0-0.1h2.4c0,0.4,0.1,0.8,0.3,1.1
			c0.2,0.3,0.5,0.4,1,0.4c0.4,0,0.7-0.1,0.9-0.4c0.2-0.3,0.3-0.6,0.3-1.1H195.5z"/>
		<path class="st0" d="M214,12.5h3.4v14.7h5.5v0h0.1V12.5h3.4v17.4h-0.1v4.3h-3.4v-4.3H214V12.5z"/>
		<path class="st0" d="M239.8,22.2h-5.3v5h6.4v2.6h-9.7V12.5h9.7v2.6h-6.3v4.4h5.3V22.2z"/>
		<path class="st0" d="M258.2,29.8h-3.4v-7.2h-5.6v7.2h-3.4V12.5h3.4V20h5.6v-7.5h3.4V29.8z"/>
		<path class="st0" d="M273.9,15.1h-4.1v14.7h-3.4V15.1h-4v-2.6h11.4V15.1z"/>
		<path class="st0" d="M281.9,23.6v6.3h-3.4V12.5h5.8c1.7,0,3.1,0.5,4.1,1.5s1.5,2.4,1.5,4c0,1.7-0.5,3-1.5,4s-2.4,1.5-4.1,1.5
			H281.9z M281.9,20.9h2.4c0.8,0,1.3-0.3,1.7-0.8c0.4-0.5,0.6-1.2,0.6-2.1c0-0.9-0.2-1.6-0.6-2.1c-0.4-0.6-1-0.8-1.7-0.8h-2.4V20.9z
			"/>
	</g>
	<g>
		<g>
			<path class="st0" d="M28.1,36.8c-0.1-1.9,0.1-3.6,1.5-5c1.5-1.5,2.6-3.2,3.2-5.2c0.2-0.6,0.3-1.2,0.4-1.8
				c0.1-0.6,0.1-1.3,0.2-1.9c-0.6,0-1.1-0.1-1.6,0c-3,0.5-5.6,1.8-7.7,4.1c-1.2,1.3-2.1,2.9-2.6,4.6c-0.3,1-0.5,2.1-0.6,3.2
				c-0.1,4.4,0,1.6,0,6c0,0.6,0,0.6-0.6,0.6c-0.7,0-1.4,0-2.1,0c-0.3,0-0.5-0.1-0.5-0.4c0-4.4,0-1.7,0-6.1c0-2,0.5-4,1.4-5.9
				c1.3-2.8,3.2-5.1,5.8-6.8c1.4-1,3-1.6,4.7-2.1c2-0.6,4.1-0.5,6.2-0.5c0.9,0,0.9,0,0.9,0.8c0,1.4,0,2.8-0.1,4.2
				c-0.1,0.9-0.3,1.8-0.5,2.6c-0.5,1.7-1.3,3.3-2.4,4.8c-1.4,2-3.2,3.5-5.4,4.7C28.2,36.8,28.2,36.8,28.1,36.8z"/>
			<path class="st0" d="M18.1,25.7c-2.3-1.7-4.8-2.7-7.8-2.7c0,0.2,0,0.4,0,0.6c0.2,3.3,1.5,6.1,3.9,8.4c1,1,1.4,2.2,1.5,3.6
				c0,0.4,0,0.8,0,1.4c-0.6-0.3-1-0.6-1.5-0.9c-2.2-1.4-3.9-3.3-5.1-5.5c-1-1.9-1.7-3.9-1.9-6c-0.1-1.4-0.1-2.8-0.1-4.2
				c0-0.4,0.1-0.5,0.5-0.5c1.1,0,2.2,0,3.3,0c1.5,0,3,0.3,4.4,0.8c1.6,0.5,3.1,1.3,4.5,2.4c0.1,0.1,0.1,0.3,0.1,0.4
				C19.3,24.1,18.7,24.9,18.1,25.7z"/>
			<path class="st0" d="M18.1,18.8c-0.5-0.2-1-0.4-1.5-0.6c-0.5-0.2-0.9-0.3-1.4-0.4c-0.2-0.1-0.3-0.2-0.3-0.4
				c0.6-3.6,2.1-6.7,4.6-9.3c0.7-0.7,1.4-1.4,2-2c0.2-0.2,0.3-0.2,0.6,0c1.2,1.3,2.4,2.4,3.5,3.7c1.1,1.3,1.9,2.9,2.4,4.6
				c0.2,0.8,0.5,1.7,0.7,2.5c0.1,0.2,0.1,0.4,0,0.6c0,0.1-0.1,0.2-0.2,0.3c-0.9,0.3-1.8,0.6-2.7,1c-0.3,0.1-0.4-0.1-0.4-0.3
				c-0.1-0.5-0.2-1.1-0.3-1.6c-0.3-1.6-1-3.1-1.9-4.4c-0.4-0.6-0.9-1.1-1.3-1.7c-0.2-0.2-0.3-0.2-0.5,0c-1.1,1.2-1.9,2.5-2.5,4
				c-0.5,1.3-0.8,2.6-1,3.9C18.2,18.7,18.1,18.7,18.1,18.8z"/>
			<path class="st0" d="M31.1,25.3c-0.1,0.4-0.2,0.8-0.3,1.1c-0.6,1.5-1.5,2.9-2.7,4.1c-1.4,1.4-2.1,3.2-2,5.2c0,4.2,0,1.1,0,5.2
				c0,0.6,0,0.6-0.6,0.6c-0.7,0-1.5,0-2.2,0c-0.3,0-0.4-0.1-0.4-0.4c0-4.3,0-1.5,0-5.8c0-1.9,0.6-3.6,1.6-5.3
				c1.2-2.1,3.1-3.5,5.3-4.4c0.4-0.2,0.8-0.3,1.2-0.4C31,25.2,31.1,25.3,31.1,25.3z"/>
			<path class="st0" d="M22,13.9c0.3,0.6,0.6,1.1,0.8,1.7c0.5,1.2,0.7,2.5,0.8,3.9c0,0.4-0.1,0.6-0.4,0.8c-0.4,0.2-0.7,0.5-1.1,0.8
				c-0.1,0.1-0.3,0.1-0.4,0c-0.4-0.3-0.9-0.6-1.3-0.9c-0.1-0.1-0.2-0.3-0.2-0.4c0-2,0.5-4,1.6-5.7C21.8,14,21.9,14,22,13.9z"/>
			<path class="st0" d="M16,30.9c-1.7-1.5-2.9-3.4-3.4-5.6c1.7,0.4,3.1,1.1,4.4,2.2c0.1,0.1,0.1,0.2,0.1,0.3c-0.3,1-0.6,1.9-0.9,2.9
				C16.1,30.7,16.1,30.8,16,30.9z"/>
		</g>
		<g>
			<path class="st0" d="M21.9,43.7C9.8,43.7,0,33.9,0,21.9S9.8,0,21.9,0s21.9,9.8,21.9,21.9S33.9,43.7,21.9,43.7z M21.9,3.1
				c-10.3,0-18.8,8.4-18.8,18.8s8.4,18.8,18.8,18.8s18.8-8.4,18.8-18.8S32.2,3.1,21.9,3.1z"/>
		</g>
	</g>
</g>
</svg>
